<svg viewBox="0 0 32 32" height="28.75" width="28.75" aria-hidden="true" data-glyph="game-time-bullet" xmlns="http://www.w3.org/2000/svg"><path xmlns="http://www.w3.org/2000/svg" d="M11.167 19.3 2.9 29.133l9.7-8.366zM4.3 21.6l5.4-4-.9-2zm10.467-7.5c-.4-.333-1.067-1.3-1.1-1.8 4.5-4.233 7.4-4.6 9.8-4.6-2.767 1.2-5.234 2.8-8.7 6.4m11.066-7.933s-1.1-.234-2.733-.234c-2.667 0-6.767.7-10.3 4.2l-2.2 2.134c-1.367 1.366 1.033 4.666 2.767 6.366.4.4.9.834 1.333 1.234l5.233-4.034L10.133 28l7.467-6.3c.8.333 1.467.4 2.133-.267l2.167-2.166c3.5-3.5 4.167-7.667 4.167-10.334 0-1.666-.234-2.766-.234-2.766"></path></svg>