<svg viewBox="0 0 32 32" height="28.75" width="28.75" aria-hidden="true" data-glyph="game-time-rapid" xmlns="http://www.w3.org/2000/svg"><path xmlns="http://www.w3.org/2000/svg" d="M15.967 18.633c.933 0 1.933-.733 1.566-2.266L16.5 12h-1l-1.033 4.4c-.367 1.5.6 2.233 1.5 2.233M16 26.5c5.233 0 9.5-4.267 9.5-9.5S21.233 7.5 16 7.5 6.5 11.767 6.5 17s4.267 9.5 9.5 9.5m0-3c-4 0-6.5-2.5-6.5-6.5s2.5-6.5 6.5-6.5 6.5 2.5 6.5 6.5-2.5 6.5-6.5 6.5M14.5 9.233h3V5h-3zM12.5 6h7c0-1.7-.433-2-3.5-2s-3.5.3-3.5 2"></path></svg>